<svg width="166" height="58" viewBox="0 0 166 58" fill="none" xmlns="http://www.w3.org/2000/svg">
<path d="M70.2308 47.6868H73.5932L77.6361 35.2828H91.8064L95.8093 47.6868H99.2918L86.5626 10.3535H82.96L70.2308 47.6868ZM78.6369 32.4949L80.7184 25.9899C82.1194 21.6666 83.3603 17.7474 84.6412 13.2222H84.8814C86.1223 17.7474 87.3231 21.6666 88.8042 25.9899L90.8857 32.4949H78.6369ZM107.738 47.6868H118.105C126.391 47.6868 131.875 44.0505 131.875 36.7373C131.875 31.606 128.593 28.5353 123.149 27.7676V27.5252C127.472 26.4747 129.634 23.1616 129.634 19.404C129.634 13.0606 124.83 10.3535 117.305 10.3535H107.738V47.6868ZM111.14 26.6363V13.0606H116.704C123.029 13.0606 126.351 14.9596 126.351 19.4848C126.351 24.0909 123.549 26.6363 116.424 26.6363H111.14ZM111.14 44.9394V29.2222H117.425C124.55 29.2222 128.593 31.5656 128.593 36.6969C128.593 42.3939 124.39 44.9394 117.425 44.9394H111.14ZM154.852 48.3333C159.575 48.3333 163.058 46.3131 165.9 43.0404L163.939 40.9394C161.377 43.808 158.695 45.3434 155.052 45.3434C147.407 45.3434 142.603 38.9192 142.603 28.8989C142.603 18.9192 147.407 12.6565 155.132 12.6565C158.415 12.6565 161.016 14.1111 162.978 16.2929L164.899 14.0707C162.898 11.7676 159.535 9.66663 155.132 9.66663C145.685 9.66663 139.121 17.0606 139.121 28.8989C139.121 40.9394 145.685 48.3333 154.852 48.3333Z" fill="white"/>
<path d="M28.6679 29.4676L29.9374 28.1862L48.5945 47.018L47.3249 48.2995L28.6679 29.4676Z" fill="white"/>
<path d="M8.86163 47.772L46.7198 9.55908L47.9893 10.8405L10.1312 49.0553L8.86163 47.772Z" fill="white"/>
<path d="M55.6659 1.8125V9.41412H48.1348V1.8125H55.6659ZM57.4615 0H46.3391V11.2266H57.4615V0ZM55.6659 48.5859V56.1875H48.1348V48.5859H55.6659ZM57.4615 46.7734H46.3391V58H57.4615V46.7734ZM9.32673 48.5859V56.1875H1.79567V48.5859H9.32673ZM11.1224 46.7734H0V58H11.1224V46.7734Z" fill="white"/>
</svg>
