<svg xmlns="http://www.w3.org/2000/svg" width="24" height="24" fill="none"><g><path id="svg_1" stroke-linejoin="round" stroke-linecap="round" stroke-width="1.5" stroke="#F7797D" d="m12,12l0,3m-3,-3l3,0l-3,0zm6,0l-3,0l3,0zm-3,0l0,-3l0,3z"/><path id="svg_2" stroke-linejoin="round" stroke-linecap="round" stroke-width="1.5" stroke="#F7797D" d="m21,3.6l0,16.8c0,0.3314 -0.2686,0.6 -0.6,0.6l-16.8,0c-0.33137,0 -0.6,-0.2686 -0.6,-0.6l0,-16.8c0,-0.33137 0.26863,-0.6 0.6,-0.6l16.8,0c0.3314,0 0.6,0.26863 0.6,0.6z"/><rect fill="#ffffff" stroke="#ffffff" id="svg_15" height="2.75723" width="3.90047" y="13.51201" x="10.09247" stroke-width="1.5"/><rect stroke="#ffffff" fill="#ffffff" id="svg_16" height="2.75723" width="3.90047" y="7.71787" x="10.01453" stroke-width="1.5"/></g></svg>
